3.0Hz3min_grf.mot
version=1
nRows=30
nColumns 19
inDegrees=yes
endheader
time	1_ground_force_vx	1_ground_force_vy	1_ground_force_vz	1_ground_force_px	1_ground_force_py	1_ground_force_pz	1_ground_torque_x	1_ground_torque_y	1_ground_torque_z	2_ground_force_vx	2_ground_force_vy	2_ground_force_vz	2_ground_force_px	2_ground_force_py	2_ground_force_pz	2_ground_torque_x	2_ground_torque_y	2_ground_torque_z
            1.251000	            6.776371	          831.772408	          -86.422154	           -0.206336	            0.006156	           -0.388593	           -0.001728	           -0.212138	            0.022041	           19.603322	          901.693063	          100.725170	           -0.211805	            0.005775	           -0.713355	            0.050455	            2.320778	            0.259247
            1.251500	            6.821358	          836.459386	          -86.402171	           -0.206626	            0.006156	           -0.388610	           -0.003503	           -0.429521	            0.044367	           19.967007	          904.823485	          101.158541	           -0.211772	            0.005775	           -0.713376	            0.051324	            2.325804	            0.260023
            1.252000	            6.682404	          841.147189	          -86.611009	           -0.206569	            0.006155	           -0.388370	           -0.004102	           -0.516315	            0.053164	           20.141697	          908.323565	          100.983233	           -0.211797	            0.005775	           -0.713381	            0.053452	            2.410510	            0.267989
            1.252500	            6.911078	          843.490914	          -86.647381	           -0.206424	            0.006156	           -0.388556	           -0.002343	           -0.286007	            0.029380	           20.599000	          911.454995	          101.228837	           -0.211881	            0.005774	           -0.713177	            0.053230	            2.355304	            0.261587
            1.253000	            7.092704	          846.197067	          -87.140661	           -0.206590	            0.006157	           -0.388708	           -0.000853	           -0.101823	            0.010486	           20.495290	          914.217163	          101.144876	           -0.211948	            0.005774	           -0.713149	            0.054121	            2.414138	            0.267089
            1.253500	            7.320514	          848.902638	          -87.496483	           -0.206640	            0.006156	           -0.388652	            0.000693	            0.080396	           -0.008286	           20.954484	          916.796946	          101.153876	           -0.211730	            0.005774	           -0.712997	            0.053645	            2.347068	            0.258961
            1.254000	            7.409217	          852.151628	          -88.445767	           -0.206517	            0.006157	           -0.388723	           -0.000799	           -0.091925	            0.009541	           20.616584	          919.557888	          101.210807	           -0.211867	            0.005774	           -0.713117	            0.051597	            2.301378	            0.253300
            1.254500	            7.500587	          855.756369	          -88.292964	           -0.206686	            0.006156	           -0.388505	           -0.002003	           -0.228536	            0.023579	           20.605491	          922.686667	          101.691258	           -0.211853	            0.005774	           -0.713262	            0.050874	            2.278073	            0.251071
            1.255000	            7.225101	          858.099800	          -88.282232	           -0.206600	            0.006156	           -0.388668	           -0.003536	           -0.419951	            0.043205	           20.408890	          925.263246	          101.935169	           -0.211745	            0.005774	           -0.713132	            0.049975	            2.265689	            0.249608
            1.255500	            6.857522	          860.804274	          -88.407299	           -0.206639	            0.006156	           -0.388670	           -0.003515	           -0.441258	            0.045319	           20.118445	          927.840657	          101.850631	           -0.211813	            0.005774	           -0.713120	            0.051512	            2.375666	            0.260781
            1.256000	            6.810859	          864.049379	          -88.484992	           -0.206648	            0.006156	           -0.388605	           -0.001720	           -0.218214	            0.022347	           20.113025	          929.314742	          101.621255	           -0.211641	            0.005774	           -0.712989	            0.051204	            2.365847	            0.258707
            1.256500	            6.764474	          866.393051	          -88.520682	           -0.206625	            0.006156	           -0.388525	            0.000384	            0.049134	           -0.005020	           19.821997	          932.075564	          101.725087	           -0.211680	            0.005774	           -0.713086	            0.050037	            2.352865	            0.256788
            1.257000	            6.671126	          868.017815	          -89.063768	           -0.206591	            0.006157	           -0.388714	            0.000512	            0.066554	           -0.006829	           19.674118	          934.100832	          101.685438	           -0.211612	            0.005774	           -0.713028	            0.047616	            2.260748	            0.246103
            1.257500	            7.036939	          870.001760	          -89.285452	           -0.206664	            0.006156	           -0.388637	           -0.000037	           -0.004529	            0.000465	           18.964783	          935.939322	          101.833100	           -0.211505	            0.005775	           -0.712968	            0.044518	            2.197018	            0.239042
            1.258000	            6.440846	          871.984144	          -89.183766	           -0.206549	            0.006157	           -0.388719	           -0.001976	           -0.267536	            0.027363	           18.303568	          937.410079	          101.838635	           -0.211439	            0.005774	           -0.712878	            0.043424	            2.223948	            0.241606
            1.258500	            6.163619	          874.510820	          -89.860089	           -0.206591	            0.006157	           -0.388776	           -0.002766	           -0.392458	            0.040327	           17.735367	          939.065544	          101.797852	           -0.211499	            0.005774	           -0.712812	            0.042593	            2.255238	            0.244475
            1.259000	            5.843318	          875.590915	          -89.533675	           -0.206540	            0.006157	           -0.388851	           -0.001828	           -0.273921	            0.028010	           17.541321	          940.906396	          101.804502	           -0.211417	            0.005775	           -0.712950	            0.041615	            2.232190	            0.241519
            1.259500	            5.384754	          877.573447	          -89.432315	           -0.206554	            0.006157	           -0.388735	           -0.000392	           -0.063923	            0.006514	           17.209181	          942.011730	          101.339303	           -0.211357	            0.005775	           -0.712814	            0.040343	            2.208343	            0.237568
            1.260000	            4.834458	          877.934008	          -89.475256	           -0.206424	            0.006157	           -0.388853	            0.000446	            0.081012	           -0.008256	           16.876515	          943.300094	          101.203265	           -0.211344	            0.005775	           -0.712861	            0.039360	            2.199993	            0.236029
            1.260500	            5.062967	          881.179092	          -89.507778	           -0.206463	            0.006156	           -0.388596	            0.000754	            0.131226	           -0.013330	           16.400541	          945.325350	          100.835267	           -0.211083	            0.005776	           -0.712824	            0.037311	            2.150588	            0.229397
            1.261000	            4.787666	          880.638740	          -89.646971	           -0.206400	            0.006157	           -0.388793	           -0.000388	           -0.071403	            0.007269	           15.645667	          946.795556	          100.934699	           -0.211109	            0.005776	           -0.712956	            0.034568	            2.091860	            0.223006
            1.261500	            4.649808	          882.441431	          -89.638900	           -0.206566	            0.006157	           -0.388797	           -0.001220	           -0.231448	            0.023511	           15.502837	          947.349875	          100.279737	           -0.211048	            0.005775	           -0.712731	            0.032454	            1.983188	            0.209926
            1.262000	            4.374050	          883.163424	          -89.864417	           -0.206462	            0.006157	           -0.388742	           -0.001546	           -0.312147	            0.031762	           14.751204	          947.899864	          100.188170	           -0.210921	            0.005776	           -0.712823	            0.030842	            1.981862	            0.209473
            1.262500	            4.054236	          884.062558	          -89.355336	           -0.206566	            0.006157	           -0.388835	           -0.000544	           -0.118596	            0.011987	           13.858107	          948.635678	           99.534184	           -0.210847	            0.005776	           -0.712719	            0.030396	            2.080694	            0.218314
            1.263000	            3.688092	          885.142644	          -89.028794	           -0.206386	            0.006156	           -0.388656	            0.000151	            0.036159	           -0.003637	           13.577529	          948.451633	           99.205142	           -0.210723	            0.005776	           -0.712637	            0.029781	            2.080350	            0.217598
            1.263500	            3.413490	          885.141804	          -88.844687	           -0.206292	            0.006156	           -0.388646	            0.000839	            0.217635	           -0.021845	           13.482938	          948.637338	           98.689637	           -0.210701	            0.005776	           -0.712543	            0.028907	            2.033823	            0.211585
            1.264000	            3.460699	          885.139454	          -88.294530	           -0.206317	            0.006157	           -0.388684	            0.000689	            0.176296	           -0.017586	           13.524932	          949.928226	           98.224936	           -0.210747	            0.005776	           -0.712711	            0.026020	            1.827533	            0.188971
            1.264500	            3.185788	          884.958908	          -88.248768	           -0.206286	            0.006157	           -0.388752	           -0.000135	           -0.037517	            0.003741	           12.732929	          948.637978	           97.751394	           -0.210638	            0.005776	           -0.712410	            0.024618	            1.834100	            0.188993
            1.265000	            3.277506	          884.778752	          -88.249768	           -0.206162	            0.006157	           -0.388802	           -0.000580	           -0.156665	            0.015626	           12.452268	          948.454603	           97.234640	           -0.210526	            0.005776	           -0.712289	            0.023129	            1.761682	            0.180606
            1.265500	            2.957453	          883.876151	          -87.977694	           -0.206153	            0.006158	           -0.388925	           -0.000583	           -0.174126	            0.017332	           12.077928	          948.270721	           96.764861	           -0.210328	            0.005776	           -0.712226	            0.023111	            1.814508	            0.185159
